<mxfile host="app.diagrams.net" modified="2020-05-04T15:52:13.468Z" agent="5.0 (Windows NT 10.0; Win64; x64) AppleWebKit/537.36 (KHTML, like Gecko) Chrome/81.0.4044.92 Safari/537.36" etag="laUIXBcIh7PVsFgymcUh" version="13.0.6" type="github">
  <diagram id="tv339kQlTo9JhmAGd2OD" name="第 1 页">
    <mxGraphModel dx="852" dy="433" grid="1" gridSize="10" guides="1" tooltips="1" connect="1" arrows="1" fold="1" page="1" pageScale="1" pageWidth="827" pageHeight="1169" math="0" shadow="0">
      <root>
        <mxCell id="0" />
        <mxCell id="1" parent="0" />
        <mxCell id="zU6k_sW0FiujC7C8IrZs-11" style="edgeStyle=orthogonalEdgeStyle;rounded=0;orthogonalLoop=1;jettySize=auto;html=1;exitX=0.5;exitY=1;exitDx=0;exitDy=0;" edge="1" parent="1" source="zU6k_sW0FiujC7C8IrZs-1" target="zU6k_sW0FiujC7C8IrZs-10">
          <mxGeometry relative="1" as="geometry" />
        </mxCell>
        <mxCell id="zU6k_sW0FiujC7C8IrZs-41" style="edgeStyle=none;rounded=0;orthogonalLoop=1;jettySize=auto;html=1;exitX=0;exitY=0;exitDx=0;exitDy=0;entryX=0;entryY=1;entryDx=0;entryDy=0;dashed=1;" edge="1" parent="1" source="zU6k_sW0FiujC7C8IrZs-1" target="zU6k_sW0FiujC7C8IrZs-3">
          <mxGeometry relative="1" as="geometry" />
        </mxCell>
        <mxCell id="zU6k_sW0FiujC7C8IrZs-1" value="App" style="ellipse;whiteSpace=wrap;html=1;aspect=fixed;fillColor=#dae8fc;strokeColor=#6c8ebf;" vertex="1" parent="1">
          <mxGeometry x="280" y="290" width="80" height="80" as="geometry" />
        </mxCell>
        <mxCell id="zU6k_sW0FiujC7C8IrZs-4" style="edgeStyle=orthogonalEdgeStyle;rounded=0;orthogonalLoop=1;jettySize=auto;html=1;exitX=0.5;exitY=1;exitDx=0;exitDy=0;entryX=0.5;entryY=0;entryDx=0;entryDy=0;" edge="1" parent="1" source="zU6k_sW0FiujC7C8IrZs-2" target="zU6k_sW0FiujC7C8IrZs-3">
          <mxGeometry relative="1" as="geometry" />
        </mxCell>
        <mxCell id="zU6k_sW0FiujC7C8IrZs-2" value="FiberRoot" style="ellipse;whiteSpace=wrap;html=1;fillColor=#fff2cc;strokeColor=#d6b656;" vertex="1" parent="1">
          <mxGeometry x="260" y="10" width="120" height="80" as="geometry" />
        </mxCell>
        <mxCell id="zU6k_sW0FiujC7C8IrZs-5" style="edgeStyle=orthogonalEdgeStyle;rounded=0;orthogonalLoop=1;jettySize=auto;html=1;exitX=1;exitY=0;exitDx=0;exitDy=0;entryX=1;entryY=1;entryDx=0;entryDy=0;" edge="1" parent="1" source="zU6k_sW0FiujC7C8IrZs-3" target="zU6k_sW0FiujC7C8IrZs-2">
          <mxGeometry relative="1" as="geometry" />
        </mxCell>
        <mxCell id="zU6k_sW0FiujC7C8IrZs-9" style="edgeStyle=orthogonalEdgeStyle;rounded=0;orthogonalLoop=1;jettySize=auto;html=1;exitX=0.5;exitY=1;exitDx=0;exitDy=0;entryX=0.5;entryY=0;entryDx=0;entryDy=0;" edge="1" parent="1" source="zU6k_sW0FiujC7C8IrZs-3" target="zU6k_sW0FiujC7C8IrZs-1">
          <mxGeometry relative="1" as="geometry" />
        </mxCell>
        <mxCell id="zU6k_sW0FiujC7C8IrZs-3" value="RootFiber" style="ellipse;whiteSpace=wrap;html=1;fillColor=#fff2cc;strokeColor=#d6b656;" vertex="1" parent="1">
          <mxGeometry x="260" y="160" width="120" height="80" as="geometry" />
        </mxCell>
        <mxCell id="zU6k_sW0FiujC7C8IrZs-6" value="current" style="text;html=1;strokeColor=none;fillColor=none;align=center;verticalAlign=middle;whiteSpace=wrap;rounded=0;" vertex="1" parent="1">
          <mxGeometry x="270" y="100" width="40" height="20" as="geometry" />
        </mxCell>
        <mxCell id="zU6k_sW0FiujC7C8IrZs-8" value="stateNode" style="text;html=1;strokeColor=none;fillColor=none;align=center;verticalAlign=middle;whiteSpace=wrap;rounded=0;" vertex="1" parent="1">
          <mxGeometry x="374" y="100" width="40" height="20" as="geometry" />
        </mxCell>
        <mxCell id="zU6k_sW0FiujC7C8IrZs-13" value="" style="rounded=0;orthogonalLoop=1;jettySize=auto;html=1;" edge="1" parent="1" source="zU6k_sW0FiujC7C8IrZs-10" target="zU6k_sW0FiujC7C8IrZs-12">
          <mxGeometry relative="1" as="geometry" />
        </mxCell>
        <mxCell id="zU6k_sW0FiujC7C8IrZs-40" style="edgeStyle=none;rounded=0;orthogonalLoop=1;jettySize=auto;html=1;exitX=0;exitY=0;exitDx=0;exitDy=0;entryX=0;entryY=1;entryDx=0;entryDy=0;dashed=1;" edge="1" parent="1" source="zU6k_sW0FiujC7C8IrZs-10" target="zU6k_sW0FiujC7C8IrZs-1">
          <mxGeometry relative="1" as="geometry" />
        </mxCell>
        <mxCell id="zU6k_sW0FiujC7C8IrZs-10" value="div" style="ellipse;whiteSpace=wrap;html=1;aspect=fixed;" vertex="1" parent="1">
          <mxGeometry x="280" y="420" width="80" height="80" as="geometry" />
        </mxCell>
        <mxCell id="zU6k_sW0FiujC7C8IrZs-27" style="edgeStyle=none;rounded=0;orthogonalLoop=1;jettySize=auto;html=1;exitX=0.5;exitY=0;exitDx=0;exitDy=0;entryX=1;entryY=1;entryDx=0;entryDy=0;dashed=1;" edge="1" parent="1" source="zU6k_sW0FiujC7C8IrZs-14" target="zU6k_sW0FiujC7C8IrZs-10">
          <mxGeometry relative="1" as="geometry" />
        </mxCell>
        <mxCell id="zU6k_sW0FiujC7C8IrZs-28" style="edgeStyle=none;rounded=0;orthogonalLoop=1;jettySize=auto;html=1;exitX=0.5;exitY=1;exitDx=0;exitDy=0;entryX=0.5;entryY=0;entryDx=0;entryDy=0;" edge="1" parent="1" source="zU6k_sW0FiujC7C8IrZs-14" target="zU6k_sW0FiujC7C8IrZs-29">
          <mxGeometry relative="1" as="geometry">
            <mxPoint x="540" y="720" as="targetPoint" />
          </mxGeometry>
        </mxCell>
        <mxCell id="zU6k_sW0FiujC7C8IrZs-14" value="list" style="ellipse;whiteSpace=wrap;html=1;aspect=fixed;" vertex="1" parent="1">
          <mxGeometry x="390" y="585" width="80" height="80" as="geometry" />
        </mxCell>
        <mxCell id="zU6k_sW0FiujC7C8IrZs-16" style="edgeStyle=none;rounded=0;orthogonalLoop=1;jettySize=auto;html=1;exitX=1;exitY=0.5;exitDx=0;exitDy=0;entryX=0;entryY=0.5;entryDx=0;entryDy=0;" edge="1" parent="1" source="zU6k_sW0FiujC7C8IrZs-12" target="zU6k_sW0FiujC7C8IrZs-14">
          <mxGeometry relative="1" as="geometry" />
        </mxCell>
        <mxCell id="zU6k_sW0FiujC7C8IrZs-22" value="" style="edgeStyle=none;rounded=0;orthogonalLoop=1;jettySize=auto;html=1;" edge="1" parent="1" source="zU6k_sW0FiujC7C8IrZs-12" target="zU6k_sW0FiujC7C8IrZs-21">
          <mxGeometry relative="1" as="geometry" />
        </mxCell>
        <mxCell id="zU6k_sW0FiujC7C8IrZs-25" style="edgeStyle=none;rounded=0;orthogonalLoop=1;jettySize=auto;html=1;exitX=1;exitY=0;exitDx=0;exitDy=0;entryX=0.5;entryY=1;entryDx=0;entryDy=0;dashed=1;" edge="1" parent="1" source="zU6k_sW0FiujC7C8IrZs-12" target="zU6k_sW0FiujC7C8IrZs-10">
          <mxGeometry relative="1" as="geometry" />
        </mxCell>
        <mxCell id="zU6k_sW0FiujC7C8IrZs-12" value="Input" style="ellipse;whiteSpace=wrap;html=1;aspect=fixed;" vertex="1" parent="1">
          <mxGeometry x="180" y="585" width="80" height="80" as="geometry" />
        </mxCell>
        <mxCell id="zU6k_sW0FiujC7C8IrZs-24" style="edgeStyle=none;rounded=0;orthogonalLoop=1;jettySize=auto;html=1;exitX=1;exitY=0;exitDx=0;exitDy=0;entryX=1;entryY=1;entryDx=0;entryDy=0;dashed=1;" edge="1" parent="1" source="zU6k_sW0FiujC7C8IrZs-21" target="zU6k_sW0FiujC7C8IrZs-12">
          <mxGeometry relative="1" as="geometry" />
        </mxCell>
        <mxCell id="zU6k_sW0FiujC7C8IrZs-21" value="input" style="ellipse;whiteSpace=wrap;html=1;aspect=fixed;" vertex="1" parent="1">
          <mxGeometry x="180" y="745" width="80" height="80" as="geometry" />
        </mxCell>
        <mxCell id="zU6k_sW0FiujC7C8IrZs-17" value="child" style="text;html=1;strokeColor=none;fillColor=none;align=center;verticalAlign=middle;whiteSpace=wrap;rounded=0;" vertex="1" parent="1">
          <mxGeometry x="330" y="250" width="40" height="20" as="geometry" />
        </mxCell>
        <mxCell id="zU6k_sW0FiujC7C8IrZs-18" value="child" style="text;html=1;strokeColor=none;fillColor=none;align=center;verticalAlign=middle;whiteSpace=wrap;rounded=0;" vertex="1" parent="1">
          <mxGeometry x="330" y="380" width="40" height="20" as="geometry" />
        </mxCell>
        <mxCell id="zU6k_sW0FiujC7C8IrZs-19" value="child" style="text;html=1;strokeColor=none;fillColor=none;align=center;verticalAlign=middle;whiteSpace=wrap;rounded=0;" vertex="1" parent="1">
          <mxGeometry x="240" y="520" width="40" height="20" as="geometry" />
        </mxCell>
        <mxCell id="zU6k_sW0FiujC7C8IrZs-20" value="sibling" style="text;html=1;strokeColor=none;fillColor=none;align=center;verticalAlign=middle;whiteSpace=wrap;rounded=0;" vertex="1" parent="1">
          <mxGeometry x="300" y="600" width="40" height="20" as="geometry" />
        </mxCell>
        <mxCell id="zU6k_sW0FiujC7C8IrZs-23" value="child" style="text;html=1;strokeColor=none;fillColor=none;align=center;verticalAlign=middle;whiteSpace=wrap;rounded=0;" vertex="1" parent="1">
          <mxGeometry x="180" y="690" width="40" height="20" as="geometry" />
        </mxCell>
        <mxCell id="zU6k_sW0FiujC7C8IrZs-26" value="return" style="text;html=1;strokeColor=none;fillColor=none;align=center;verticalAlign=middle;whiteSpace=wrap;rounded=0;" vertex="1" parent="1">
          <mxGeometry x="250" y="690" width="40" height="20" as="geometry" />
        </mxCell>
        <mxCell id="zU6k_sW0FiujC7C8IrZs-31" value="" style="edgeStyle=none;rounded=0;orthogonalLoop=1;jettySize=auto;html=1;" edge="1" parent="1" source="zU6k_sW0FiujC7C8IrZs-29" target="zU6k_sW0FiujC7C8IrZs-30">
          <mxGeometry relative="1" as="geometry" />
        </mxCell>
        <mxCell id="zU6k_sW0FiujC7C8IrZs-35" style="edgeStyle=none;rounded=0;orthogonalLoop=1;jettySize=auto;html=1;exitX=1;exitY=0;exitDx=0;exitDy=0;entryX=1;entryY=1;entryDx=0;entryDy=0;dashed=1;" edge="1" parent="1" source="zU6k_sW0FiujC7C8IrZs-29" target="zU6k_sW0FiujC7C8IrZs-14">
          <mxGeometry relative="1" as="geometry" />
        </mxCell>
        <mxCell id="zU6k_sW0FiujC7C8IrZs-29" value="span" style="ellipse;whiteSpace=wrap;html=1;aspect=fixed;" vertex="1" parent="1">
          <mxGeometry x="334" y="730" width="80" height="80" as="geometry" />
        </mxCell>
        <mxCell id="zU6k_sW0FiujC7C8IrZs-33" value="" style="edgeStyle=none;rounded=0;orthogonalLoop=1;jettySize=auto;html=1;" edge="1" parent="1" source="zU6k_sW0FiujC7C8IrZs-30" target="zU6k_sW0FiujC7C8IrZs-32">
          <mxGeometry relative="1" as="geometry" />
        </mxCell>
        <mxCell id="zU6k_sW0FiujC7C8IrZs-36" style="edgeStyle=none;rounded=0;orthogonalLoop=1;jettySize=auto;html=1;exitX=0.5;exitY=0;exitDx=0;exitDy=0;entryX=1;entryY=1;entryDx=0;entryDy=0;dashed=1;" edge="1" parent="1" source="zU6k_sW0FiujC7C8IrZs-30" target="zU6k_sW0FiujC7C8IrZs-14">
          <mxGeometry relative="1" as="geometry" />
        </mxCell>
        <mxCell id="zU6k_sW0FiujC7C8IrZs-30" value="span" style="ellipse;whiteSpace=wrap;html=1;aspect=fixed;" vertex="1" parent="1">
          <mxGeometry x="494" y="730" width="80" height="80" as="geometry" />
        </mxCell>
        <mxCell id="zU6k_sW0FiujC7C8IrZs-37" style="edgeStyle=none;rounded=0;orthogonalLoop=1;jettySize=auto;html=1;exitX=0;exitY=0;exitDx=0;exitDy=0;entryX=1;entryY=1;entryDx=0;entryDy=0;dashed=1;" edge="1" parent="1" source="zU6k_sW0FiujC7C8IrZs-32" target="zU6k_sW0FiujC7C8IrZs-14">
          <mxGeometry relative="1" as="geometry" />
        </mxCell>
        <mxCell id="zU6k_sW0FiujC7C8IrZs-32" value="span" style="ellipse;whiteSpace=wrap;html=1;aspect=fixed;" vertex="1" parent="1">
          <mxGeometry x="654" y="730" width="80" height="80" as="geometry" />
        </mxCell>
        <mxCell id="zU6k_sW0FiujC7C8IrZs-34" value="child" style="text;html=1;strokeColor=none;fillColor=none;align=center;verticalAlign=middle;whiteSpace=wrap;rounded=0;" vertex="1" parent="1">
          <mxGeometry x="354" y="680" width="40" height="20" as="geometry" />
        </mxCell>
        <mxCell id="zU6k_sW0FiujC7C8IrZs-38" value="sibling" style="text;html=1;strokeColor=none;fillColor=none;align=center;verticalAlign=middle;whiteSpace=wrap;rounded=0;" vertex="1" parent="1">
          <mxGeometry x="430" y="745" width="40" height="20" as="geometry" />
        </mxCell>
        <mxCell id="zU6k_sW0FiujC7C8IrZs-39" value="sibling" style="text;html=1;strokeColor=none;fillColor=none;align=center;verticalAlign=middle;whiteSpace=wrap;rounded=0;" vertex="1" parent="1">
          <mxGeometry x="590" y="745" width="40" height="20" as="geometry" />
        </mxCell>
      </root>
    </mxGraphModel>
  </diagram>
</mxfile>
